<?xml version="1.0" encoding="UTF-8" standalone="no"?>
<svg
   xmlns:dc="http://purl.org/dc/elements/1.1/"
   xmlns:cc="http://creativecommons.org/ns#"
   xmlns:rdf="http://www.w3.org/1999/02/22-rdf-syntax-ns#"
   xmlns:svg="http://www.w3.org/2000/svg"
   xmlns="http://www.w3.org/2000/svg"
   id="svg8"
   version="1.1"
   viewBox="0 0 210 297"
   height="297mm"
   width="210mm">
  <defs
     id="defs2" />
  <metadata
     id="metadata5">
    <rdf:RDF>
      <cc:Work
         rdf:about="">
        <dc:format>image/svg+xml</dc:format>
        <dc:type
           rdf:resource="http://purl.org/dc/dcmitype/StillImage" />
        <dc:title></dc:title>
      </cc:Work>
    </rdf:RDF>
  </metadata>
  <g
     style="display:inline"
     id="layer1">
    <path
       style="fill:#e4bc82;stroke:#000000;stroke-width:0.26458332px;stroke-linecap:butt;stroke-linejoin:miter;stroke-opacity:1;fill-opacity:1"
       d="m 101.25161,88.396132 c 0,6.147199 -5.879935,6.414468 -5.879935,6.414468 0,0 -2.6727,7.48355 -14.031652,4.009052 C 69.981061,95.345141 63.700231,87.861594 65.704751,82.917106 c 2.00452,-4.944486 6.68174,-3.608139 6.68174,-3.608139 0,0 2.939962,-6.280832 14.165282,-3.608139 11.225323,2.672697 10.958053,7.617182 10.958053,7.617182 0,0 4.009044,0.400905 3.741784,5.078122 z"
       id="path4523" />
    <path
       id="path4526"
       d="m 62.949247,77.430225 c -0.01146,-9.846137 4.330513,-22.145999 4.330513,-22.145999 0,0 -1.228421,-3.401787 -0.28348,-4.819197 0.944938,-1.41741 2.113389,-2.333291 3.96875,-2.267858 2.029247,0.07157 4.630208,0.283483 4.913688,2.173365 0.283483,1.889879 -3.245437,0.557494 -4.958562,0.605121 -1.713125,0.04763 -1.197639,1.883931 -0.376008,2.703153 0.821631,0.819222 2.49975,0.471486 3.161209,0.56598 0.661458,0.0945 2.078868,1.322916 1.228423,2.173364 -0.850448,0.850447 -2.834823,1.795386 -2.834823,1.795386 0,0 3.906272,10.572762 4.158891,16.145388 0.296914,6.549734 -2.172548,13.682644 -7.086239,14.249609 -4.913691,0.566962 -6.210897,-1.332175 -6.222362,-11.178312 z"
       style="fill:#e4bc82;stroke:#000000;stroke-width:0.26458332px;stroke-linecap:butt;stroke-linejoin:miter;stroke-opacity:1;fill-opacity:1" />
    <path
       style="fill:#e4bc82;stroke:#000000;stroke-width:0.26458332px;stroke-linecap:butt;stroke-linejoin:miter;stroke-opacity:1;fill-opacity:1"
       d="m 163.54533,79.167477 c 0.0115,-9.846137 -4.33052,-22.145999 -4.33052,-22.145999 0,0 1.22842,-3.401787 0.28348,-4.819197 -0.94493,-1.41741 -2.11339,-2.333291 -3.96875,-2.267858 -2.02924,0.07157 -4.6302,0.283483 -4.91368,2.173365 -0.28349,1.889879 3.24543,0.557494 4.95856,0.605121 1.71312,0.04763 1.19764,1.883931 0.37601,2.703153 -0.82164,0.819222 -2.49975,0.471486 -3.16121,0.56598 -0.66146,0.0945 -2.07887,1.322916 -1.22843,2.173364 0.85045,0.850447 2.83483,1.795386 2.83483,1.795386 0,0 -3.90628,10.572762 -4.15889,16.145388 -0.29692,6.549734 2.17254,13.682644 7.08623,14.249609 4.9137,0.566962 6.2109,-1.332175 6.22237,-11.178312 z"
       id="path4528" />
    <path
       id="path4530"
       transform="scale(0.26458333)"
       d="m 439.82227,273.23438 -32.5,0.35742 c 0,0 -2.14398,8.7486 -2.67969,10.71289 -0.32563,1.19388 -3.19558,5.85429 -5.4707,9.45312 -5.6e-4,-2.4e-4 -10e-4,2.4e-4 -0.002,0 -6.65689,-2.87297 -14.83026,-2.73358 -20.8457,-2.74804 -20.72481,-0.0498 -42.88979,21.09235 -44.39649,42.93945 -2.14286,31.07142 32.85827,56.78514 36.42969,64.28516 3.08922,6.48732 19.57206,56.53657 27.17009,79.63821 4.09541,21.85221 14.70492,26.41538 28.75263,26.26037 14.04772,-0.155 23.89433,3.72804 28.57781,-18.84746 7.59311,-23.10821 26.73108,-80.56488 29.81978,-87.05112 3.57143,-7.50002 38.57062,-33.21374 36.42774,-64.28516 -2.00286,-29.04174 -45.3433,-58.23292 -69.07813,-36.84375 -2.71637,-3.31974 -9.00224,-11.07484 -9.70507,-12.62109 -0.89288,-1.96429 -2.5,-11.25 -2.5,-11.25 z"
       style="fill:#e4bc82;stroke:#000000;stroke-width:0.99999994px;stroke-linecap:butt;stroke-linejoin:miter;stroke-opacity:1;fill-opacity:1" />
    <path
       id="path4541"
       d="m 105.86928,131.08438 c -7.617175,6.78196 -2.60587,19.51068 -2.60587,19.51068 0,0 -5.278575,1.06907 -5.746297,1.5368 l -1.336347,-1.1359 c -0.759102,-0.64524 -1.305062,0.37396 -1.403165,1.46998 -0.0981,1.09602 1.937702,2.6894 3.808589,2.82304 1.87089,0.13363 5.90246,-1.48059 7.61717,-2.22168 1.71472,-0.74109 1.93771,-2.47224 0.26728,-2.93997 -2.13816,-7.91786 -2.7658,-9.77566 2.13815,-17.43933 0.71708,-1.12062 -1.44587,-3.22592 -2.73951,-1.60362 z"
       style="fill:#e4bc82;stroke:#000000;stroke-width:0.26458332px;stroke-linecap:butt;stroke-linejoin:miter;stroke-opacity:1;fill-opacity:1" />
    <path
       style="fill:#e4bc82;stroke:#000000;stroke-width:0.26458332px;stroke-linecap:butt;stroke-linejoin:miter;stroke-opacity:1;fill-opacity:1"
       d="m 119.643,130.99084 c 7.61718,6.78196 2.60587,19.51068 2.60587,19.51068 0,0 5.27858,1.06907 5.7463,1.5368 l 1.33635,-1.1359 c 0.7591,-0.64524 1.30506,0.37396 1.40316,1.46998 0.0981,1.09602 -1.9377,2.6894 -3.80859,2.82304 -1.87089,0.13363 -5.90246,-1.48059 -7.61717,-2.22168 -1.71472,-0.74109 -1.93771,-2.47224 -0.26728,-2.93997 2.13816,-7.91786 2.7658,-9.77566 -2.13815,-17.43933 -0.71708,-1.12062 1.44587,-3.22592 2.73951,-1.60362 z"
       id="path4543" />
    <path
       id="path4545"
       d="m 105.14383,61.221505 c 0,0 -1.63702,2.99342 -0.51449,5.3788 1.12253,2.38538 -0.70158,4.443354 -0.70158,4.443354 0,0 -2.05798,1.309622 -1.44994,2.432154 0.60804,1.122531 2.29183,1.122531 2.52569,0.561265 0.23386,-0.561266 0.007,1.597964 1.63703,1.917659 1.63002,0.319695 12.67526,-1.075758 12.62849,-4.30304 -0.0468,-3.227279 2.01119,-6.548104 0.74835,-8.465761 0.0935,-2.198294 -1.16931,-3.133735 -0.98222,-3.741774 0.18709,-0.608037 -0.42857,-5.410898 -6.69604,-5.270582 -6.26747,0.140317 -7.19529,7.047925 -7.19529,7.047925 z"
       style="fill:#dcb47a;stroke:#000000;stroke-width:0.26458332px;stroke-linecap:butt;stroke-linejoin:miter;stroke-opacity:1;fill-opacity:1" />
    <path
       id="path4547"
       d="m 110.242,63.677042 -0.74836,2.619243 c 0,0 -1.14592,-0.350792 -0.98221,0.374177 0.1637,0.724968 1.77734,0.444336 1.77734,0.444336 0,0 1.59025,0.280632 1.61364,-0.327406 0.0234,-0.608037 -0.88867,-0.65481 -0.88867,-0.65481 l 0.0468,-1.075759"
       style="fill:none;stroke:#000000;stroke-width:0.26458332px;stroke-linecap:butt;stroke-linejoin:miter;stroke-opacity:1" />
    <path
       id="path4549"
       d="m 107.27196,68.985685 c 0,0 0.91206,-0.257247 0.98222,-0.701583 0.0702,-0.444336 1.14592,0.678196 1.54348,0.724969 0.39756,0.04677 -1.44994,0.257247 -1.40316,0.795126 0.0468,0.537879 -1.12254,-0.818512 -1.12254,-0.818512 z"
       style="fill:none;stroke:#000000;stroke-width:0.26458332px;stroke-linecap:butt;stroke-linejoin:miter;stroke-opacity:1" />
    <path
       id="path4551"
       d="m 110.51094,69.231237 c -0.29233,0.233862 -1.33301,1.344699 -2.11644,1.274542 -0.78344,-0.07016 -1.92936,-1.192691 -1.91766,-1.508402 0.0117,-0.315712 0.99391,-1.286235 1.73057,-1.309622 0.73666,-0.02339 1.8475,0.572961 1.8475,0.572961"
       style="fill:none;stroke:#000000;stroke-width:0.26458332px;stroke-linecap:butt;stroke-linejoin:miter;stroke-opacity:1" />
    <path
       id="path4553"
       d="m 109.08439,67.74622 1.06406,-0.152008"
       style="fill:none;stroke:#000000;stroke-width:0.26458332px;stroke-linecap:butt;stroke-linejoin:miter;stroke-opacity:1" />
    <path
       id="path4555"
       d="m 109.41179,70.143295 1.30962,0.0117"
       style="fill:none;stroke:#000000;stroke-width:0.26458332px;stroke-linecap:butt;stroke-linejoin:miter;stroke-opacity:1" />
    <path
       id="path4557"
       d="m 106.41211,62.198829 c 1.4056,0.132291 3.37344,0.314192 3.68763,0.132291 0.31419,-0.181901 0.64492,-0.661458 0.64492,-0.661458"
       style="fill:none;stroke:#000000;stroke-width:0.26458332px;stroke-linecap:butt;stroke-linejoin:miter;stroke-opacity:1" />
    <path
       id="path4559"
       d="m 107.59937,62.344037 c -0.1754,0.304017 0.0234,0.818513 0.70158,0.958829 0.6782,0.140317 0.91206,-0.830207 0.81851,-0.912058"
       style="fill:#000000;stroke:#000000;stroke-width:0.26458332px;stroke-linecap:butt;stroke-linejoin:miter;stroke-opacity:1;fill-opacity:1" />
    <path
       style="fill:none;stroke:#000000;stroke-width:0.26458332px;stroke-linecap:butt;stroke-linejoin:miter;stroke-opacity:1"
       d="m 116.46357,62.231902 c -1.4056,0.132291 -3.37344,0.314192 -3.68763,0.132291 -0.31419,-0.181901 -0.64492,-0.661458 -0.64492,-0.661458"
       id="path4561" />
    <path
       style="fill:#000000;stroke:#000000;stroke-width:0.26458332px;stroke-linecap:butt;stroke-linejoin:miter;stroke-opacity:1;fill-opacity:1"
       d="m 115.27631,62.37711 c 0.1754,0.304017 -0.0234,0.818513 -0.70158,0.958829 -0.6782,0.140317 -0.91206,-0.830207 -0.81851,-0.912058"
       id="path4563" />
    <path
       id="path4565"
       d="m 104.48902,123.5688 c -0.98221,0.25725 0.21047,3.57807 0.72497,3.57807 0.51449,0 4.46674,0.56127 7.50693,0.53788 3.04019,-0.0234 7.78757,-0.42095 8.09159,-0.51449 0.30402,-0.0935 1.56686,-2.87649 0.91205,-2.97003 -0.65481,-0.0936 -4.95785,0.37417 -8.83994,0.39756 -3.88209,0.0234 -7.7174,-1.0056 -8.3956,-1.02899 z"
       style="fill:#cd3a26;stroke:#000000;stroke-width:0.26458332px;stroke-linecap:butt;stroke-linejoin:miter;stroke-opacity:1;fill-opacity:1" />
    <path
       id="path4567"
       d="m 105.0269,127.19364 c 0.0935,1.49672 0.91206,3.2039 0.91206,3.2039 0,0 -1.47333,1.52009 -1.87089,2.03459 -0.39756,0.51449 0.95883,0 1.87089,0.60804 0.91205,0.60803 1.12253,2.12813 1.70718,1.75395 0.58465,-0.37418 1.54348,-1.77734 1.54348,-1.77734 0,0 1.98782,1.23946 4.0458,0.72497 2.05797,-0.51449 3.90058,-0.10542 3.90058,-0.10542 0,0 0.84679,2.44403 1.43144,2.14001 0.58465,-0.30402 2.05798,-2.45554 2.87649,-2.40877 0.81851,0.0468 -1.30962,-2.54908 -1.30962,-2.54908 0,0 0.95883,-2.92326 0.98222,-3.41437 0.0234,-0.49111 -15.66868,-0.70158 -16.08963,-0.21048 z"
       style="fill:#de8e1d;stroke:#000000;stroke-width:0.26458332px;stroke-linecap:butt;stroke-linejoin:miter;stroke-opacity:1;fill-opacity:1" />
  </g>
  <g
     id="layer2">
    <path
       id="path4521"
       d="m 126.41848,89.197941 c 0,6.147199 5.87993,6.414468 5.87993,6.414468 0,0 2.6727,7.483551 14.03165,4.009044 11.35896,-3.474503 17.63979,-10.95805 15.63527,-15.902538 -2.00452,-4.944486 -6.68174,-3.608139 -6.68174,-3.608139 0,0 -2.93996,-6.280832 -14.16528,-3.608139 -11.22532,2.672697 -10.95805,7.617182 -10.95805,7.617182 0,0 -4.00904,0.400905 -3.74178,5.078122 z"
       style="fill:#e4bc82;stroke:#000000;stroke-width:0.26458332px;stroke-linecap:butt;stroke-linejoin:miter;stroke-opacity:1;fill-opacity:1" />
  </g>
</svg>
